<svg width="400" height="400" viewBox="0 0 400 400" fill="none" xmlns="http://www.w3.org/2000/svg">
<g clip-path="url(#clip0_518_2195)">
<rect width="400" height="400" rx="64" fill="#F9FAFB"/>
<g clip-path="url(#clip1_518_2195)">
<path d="M200 62C276.092 62 338 123.908 338 200C338 276.092 276.092 338 200 338C123.908 338 62 276.092 62 200C62 123.908 123.898 62 200 62ZM248.777 138.704C248.777 116.65 234.068 97.9897 213.947 91.9664V308.055C234.068 302.032 248.777 283.371 248.777 261.318V138.714V138.704ZM151.212 261.307C151.212 283.36 165.921 302.021 186.042 308.044V91.9557C165.921 97.979 151.212 116.64 151.212 138.693V261.296V261.307ZM310.084 200C310.084 167.757 296.159 138.714 273.998 118.561C275.748 124.982 276.693 131.725 276.693 138.693V261.296C276.693 268.265 275.737 275.007 273.998 281.428C296.159 261.275 310.084 232.232 310.084 199.989V200ZM126.002 281.439C124.252 275.018 123.296 268.275 123.296 261.307V138.704C123.296 131.735 124.252 124.993 126.002 118.572C103.841 138.725 89.9156 167.768 89.9156 200.011C89.9156 232.253 103.852 261.296 126.002 281.449V281.439Z" fill="#111827"/>
</g>
</g>
<defs>
<clipPath id="clip0_518_2195">
<rect width="400" height="400" rx="64" fill="white"/>
</clipPath>
<clipPath id="clip1_518_2195">
<rect width="276" height="276" fill="white" transform="matrix(-1 0 0 1 338 62)"/>
</clipPath>
</defs>
</svg>
