<svg width="22" height="22" viewBox="0 0 22 22" fill="none" xmlns="http://www.w3.org/2000/svg">
<path d="M11 0C4.9225 0 0 4.9225 0 11C0 17.0775 4.9225 22 11 22C17.0775 22 22 17.0775 22 11C22 4.9225 17.0775 0 11 0ZM6.33188 6.66875C6.33188 4.43437 7.89938 2.57125 9.99625 2.11063V19.8894C7.89938 19.4288 6.33188 17.5656 6.33188 15.3312V6.66188V6.66875ZM15.6681 15.3381C15.6681 17.5725 14.1006 19.4356 12.0037 19.8963V2.11063C14.1006 2.57125 15.6681 4.43437 15.6681 6.66875V15.3381ZM2.00063 11C2.00063 8.50438 3.01813 6.24938 4.66125 4.61313C4.455 5.25938 4.33813 5.94688 4.33813 6.66188V15.3312C4.33813 16.0462 4.455 16.7338 4.66125 17.38C3.01813 15.7506 2.00063 13.4888 2.00063 10.9931V11ZM17.3456 17.3869C17.5519 16.7406 17.6688 16.0531 17.6688 15.3381V6.66875C17.6688 5.95375 17.5519 5.26625 17.3456 4.62C18.9888 6.24938 20.0063 8.51125 20.0063 11.0069C20.0063 13.5025 18.9888 15.7575 17.3456 17.3937V17.3869Z" fill="white"/>
</svg>
